<svg xmlns="http://www.w3.org/2000/svg" xmlns:xlink="http://www.w3.org/1999/xlink" version="1.1" x="0px" y="0px" viewBox="0 0 100 100"
        enable-background="new 0 0 100 100" xml:space="preserve" class="drop drop1">
        <g>
            <path fill="#e3f3f5" d="M61.8,41.3l-12-12l-12,12c-3.3,3.3-5.1,7.6-5.1,12.2c0,4.6,1.8,9,5.1,12.2c3.2,3.2,7.4,5,11.9,5.1h0h0   c4.5-0.1,8.8-1.9,11.9-5.1c3.3-3.3,5.1-7.6,5.1-12.2C66.8,48.9,65,44.5,61.8,41.3z M59.5,63.4c-2.6,2.6-6,4-9.6,4.1   c-3.6-0.1-7.1-1.5-9.6-4.1c-2.6-2.6-4.1-6.2-4.1-9.9s1.5-7.2,4.1-9.9l9.6-9.6l9.6,9.6c2.6,2.6,4.1,6.2,4.1,9.9S62.1,60.8,59.5,63.4   z"></path>
        </g>
    </svg>