<svg xmlns="http://www.w3.org/2000/svg" xmlns:xlink="http://www.w3.org/1999/xlink" version="1.1" x="0px" y="0px" viewBox="0 0 100 125"
        enable-background="new 0 0 100 100" xml:space="preserve" class="flame flame1">
        <path fill="#EF866C" d="M71.902,56.802c-1.151-9.689-3.447-16.008-7.339-24.692c-3.745-8.364-6.682-17.602-8.357-26.539  c-8.663,1.081-11.152,14.624-13.603,21.267c-2.184-2.868-2.811-6.179-3.62-9.619C32.737,29.015,28.155,39.295,27.887,53.68  c-0.245,13.019,9.251,24.62,8.726,37.181c9.278-7.932,13.572-23.485,10.293-35.345c6.358,3.015,8.172,11.477,8.36,17.652  c0.26,8.211-4.177,14.788-5.379,21.259l0.668-0.466c5.178-4.324,10.602-6.634,15.076-13.262C70.374,73.674,72.9,65.26,71.902,56.802  z"
        />
    </svg>