
<svg xmlns="http://www.w3.org/2000/svg" xmlns:xlink="http://www.w3.org/1999/xlink" version="1.1" x="0px" y="0px" viewBox="0 0 100 125" enable-background="new 0 0 100 100" xml:space="preserve"><g><path fill="white" d="M30.372,48.682c0,0-1.947-1.065-3.147-1.622c0.278,0.679,0.592,1.295,0.928,1.618   c0.832,0.817,2.991,2.372,5.797,2.2C34.118,50.866,30.372,48.682,30.372,48.682z"/><path fill="white" d="M67.064,62.195c2.777-2.477,4.199-5.387,3.876-6.801c-0.083-0.362-3.543-0.137-5.895,2.363   c-1.745,1.863-4.754,6.391-4.754,6.391C61.521,64.237,64.924,64.105,67.064,62.195z"/><path fill="white" d="M29.048,55.394c-0.322,1.414,1.099,4.324,3.877,6.801c2.142,1.91,5.542,2.042,6.772,1.953   c0,0-3.005-4.528-4.751-6.391C32.592,55.257,29.13,55.032,29.048,55.394z"/><path fill="white" d="M66.05,50.716c2.809,0.177,4.964-1.378,5.8-2.193c0.334-0.328,0.65-0.945,0.927-1.618   c-1.199,0.554-3.146,1.62-3.146,1.62S65.881,50.705,66.05,50.716z"/><path fill="white" d="M58.588,70.79c-0.205,0.586-0.44,1.185-0.694,1.771c0.101,0.736,0.796,6.482-2.213,8.201   c-0.543,0.312-0.907,2.195-1.007,3.308l-0.011,0.053c-0.011,0.036-1.252,3.597-4.662,3.641c-3.422-0.044-4.659-3.604-4.673-3.641   L45.32,84.07c-0.109-1.113-0.47-2.996-1.013-3.306c-3.008-1.721-2.311-7.468-2.213-8.204c-0.253-0.586-0.491-1.185-0.695-1.771   c-0.053,1.744-0.457,4.587-2.207,7.677c-1.602,2.809-0.839,7.571,0.085,9.122l0.148,0.251c1.156,1.953,4.233,7.147,10.44,7.161   l0.13-0.003L50.122,95c6.208-0.013,9.283-5.208,10.441-7.165l0.148-0.246c0.926-1.551,1.685-6.306,0.09-9.122   C59.045,75.376,58.642,72.534,58.588,70.79z"/><path fill="white" d="M88.203,27.798c0,0-1.147,4.263-1.48,4.851c-0.335,0.594-1.209,2.488-2.466,3.514c-1.265,1.032-2.073,1.558-2.423,1.612   c-0.349,0.056-0.465,0.015-0.134-1.049c0.357-1.175,1.132-5.338,1.208-5.744c0.077-0.405,0.847-3.824,0.711-5.084   c-0.078-0.74,0.512-4.772,0.608-5.072c0.097-0.302,0.896-5.602,0.82-6.608c-0.077-1.075-1.061-3.44-1.269-4.086   c-0.217-0.647-0.42-2.58-0.808-3.412c-0.389-0.831-0.225-1.605-0.646-1.538c-0.419,0.067,0,1.536-0.007,1.714   c-0.008,0.182,0.139,2.163,0.162,2.764c0.029,0.606,0.452,2.755,0.635,3.224c0.19,0.471,0.37,1.409,0.222,2.254   c-0.148,0.847-0.275,2.264-0.567,2.666c-0.292,0.407-1.167,1.871-2.25,0.691c-0.332-0.361-1.326-2.555-1.78-3.252   c-0.431-0.664-0.935-2.03-1.524-2.758c-0.582-0.728-1.077-1.361-2.384-2.582c-1.309-1.218-1.41-1.631-1.86-2.196   c-0.455-0.574-1.444-1.95-1.908-2.484c-0.305-0.35-0.817-0.404-0.094,0.734c0.718,1.13,1.902,3.552,2.49,4.317   c0.59,0.755,1.576,2.674,1.887,3.229c0.301,0.562,1.267,2.518,1.667,3.238c0.402,0.718,1.139,2.388,1.686,3.555   c0.549,1.157,1.471,3.514,1.628,5.599c0.163,2.085-0.07,3.585-0.458,5.149c-0.394,1.567-0.305,3.168-0.615,4.291   c0,0-0.191,2.784-1.88,4.531c-0.687,0.709-1.449,1.352-2.135,1.88c0.007-1.692-0.069-3.119-0.105-3.342   c0,0-0.527-0.202-0.741,1.368c-0.118,0.881-0.187,1.92-0.29,2.802c-0.461,0.322-0.827,0.551-1.006,0.665   c-0.516,0.333-3.799,1.944-5.044,2.862c-1.245,0.916-7.97,5.305-8.338,5.685c-0.368,0.381-0.844,0.529-0.844,0.529   s-0.033-3.065,0.01-3.437c0.05-0.362,0.045-3.261,0.099-3.588c0.055-0.333,0.171-2.713,0.245-3.119   c0.075-0.402,0.629-3.61,0.075-3.696c-0.549-0.088-0.501,1.298-0.978,2.343c-0.471,1.039-0.672,3.33-0.813,4.028   c-0.133,0.705-0.464,5.049-0.424,5.296c0.041,0.24-0.073,2.406-0.426,2.857c-0.357,0.455-0.589,0.992-0.546,1.487   c0.043,0.47-1.256,1.178-1.352,1.227c-0.786-0.24-2.738-0.296-3.011,0.112c-0.133,0.2-0.185,0.613-1.431,0.569   c-0.065,0-0.122-0.007-0.182-0.01c-0.047,0.003-0.095,0.004-0.141,0.01c-0.051-0.006-0.096-0.007-0.144-0.01   c-0.057,0.003-0.117,0.01-0.182,0.01c-1.245,0.044-1.309-0.368-1.435-0.569c-0.208-0.35-2.259-0.324-3.043-0.092   c-0.301-0.146-1.344-0.668-1.304-1.093c0.045-0.493-0.188-1.032-0.544-1.484c-0.359-0.449-0.472-2.612-0.428-2.859   c0.04-0.245-0.29-4.589-0.428-5.29c-0.137-0.699-0.342-2.989-0.809-4.033c-0.475-1.04-0.432-2.43-0.979-2.339   c-0.553,0.089,0,3.291,0.071,3.695c0.078,0.409,0.197,2.786,0.248,3.12c0.052,0.327,0.044,3.226,0.098,3.587   c0.044,0.369,0.011,3.44,0.011,3.44s-0.475-0.15-0.84-0.532c-0.371-0.381-7.1-4.768-8.341-5.682   c-1.248-0.922-4.528-2.528-5.046-2.863c-0.174-0.114-0.54-0.348-1.004-0.667c-0.106-0.885-0.175-1.916-0.292-2.8   c-0.211-1.573-0.743-1.373-0.743-1.373c-0.035,0.225-0.104,1.65-0.099,3.347c-0.691-0.532-1.448-1.173-2.141-1.888   c-1.682-1.741-1.877-4.527-1.877-4.527c-0.307-1.122-0.22-2.725-0.614-4.287c-0.385-1.568-0.619-3.065-0.46-5.149   c0.16-2.088,1.082-4.439,1.627-5.603c0.55-1.165,1.283-2.832,1.685-3.554c0.403-0.722,1.367-2.673,1.675-3.235   c0.304-0.555,1.295-2.47,1.884-3.234c0.591-0.76,1.768-3.181,2.489-4.315c0.721-1.138,0.209-1.085-0.091-0.733   c-0.463,0.536-1.456,1.911-1.908,2.478c-0.451,0.576-0.555,0.986-1.861,2.204c-1.309,1.217-1.803,1.851-2.39,2.579   c-0.578,0.731-1.086,2.095-1.523,2.755c-0.451,0.701-1.444,2.892-1.776,3.254c-1.089,1.18-1.955-0.285-2.248-0.688   c-0.294-0.405-0.423-1.821-0.573-2.669c-0.148-0.844,0.044-1.78,0.227-2.251c0.183-0.471,0.603-2.619,0.628-3.222   c0.03-0.604,0.177-2.587,0.167-2.765c-0.004-0.185,0.41-1.651-0.004-1.717c-0.42-0.07-0.264,0.707-0.646,1.535   c-0.389,0.837-0.595,2.769-0.809,3.413c-0.209,0.646-1.191,3.013-1.271,4.088c-0.076,1.007,0.723,6.303,0.817,6.606   c0.095,0.299,0.686,4.333,0.611,5.072c-0.136,1.266,0.633,4.685,0.711,5.087c0.075,0.406,0.847,4.566,1.211,5.742   c0.326,1.07,0.212,1.112-0.136,1.05c-0.351-0.053-1.156-0.58-2.425-1.608c-1.26-1.033-2.134-2.928-2.465-3.517   c-0.332-0.589-1.481-4.852-1.481-4.852s-0.444-0.826-0.49,0.315c-0.038,1.133,0.456,4.382,1.206,6.381   c0.73,1.956,2.536,3.587,2.777,3.82c0.242,0.224,3.044,1.743,4.252,3.338c0.861,1.132,3.614,3.048,5.419,4.141   c0.022,0.148,0.038,0.29,0.06,0.433c0.417,2.711,1.262,4.315,4.236,6.054c3.087,1.795,4.981,0.595,8.597,1.683   c3.13,0.945,2.855,3.271,2.727,3.873c-0.406-0.517-7.149-3.801-11.559-3.804c-1.553,0-1.01,1.851,0.122,4.34   c0.736,1.62,3.12,4.369,4.897,5.47c1.549,0.965,4.99,1.795,6.358,1.665c0,0,0.262-0.28,0.516-0.729   c-0.007,0.023-0.009,0.051-0.015,0.075c-0.126,0.259-0.208,0.439-0.221,0.468l0.109,0.047c0.001-0.002,0.007-0.016,0.015-0.034   c-0.033,0.24-0.05,0.497-0.04,0.783c0.019,0.829,0.182,1.746,0.422,2.676c0.134,0.527,0.432,1.398,0.699,2.132   c0.252,0.7,0.475,1.284,0.491,1.324c0,0-0.926,6.231,2.018,7.956c0.66,0.388,0.966,2.371,1.063,3.142l-0.023,0.314h0.056   c0,0,1.18,3.564,4.409,3.564c0.038,0,0.064-0.009,0.096-0.009c0.03,0,0.06,0.009,0.094,0.009c2.727,0,3.99-2.54,4.316-3.33h0.009   v-0.011c0.058-0.134,0.084-0.222,0.084-0.222s0.269-2.975,1.09-3.457c2.953-1.725,2.02-7.956,2.02-7.956   c0.04-0.093,0.075-0.179,0.114-0.267c0.027-0.008,0.198-0.457,0.397-1.034c0.247-0.696,0.536-1.591,0.681-2.155   c0.242-0.93,0.398-1.847,0.422-2.676c0.013-0.369-0.025-0.684-0.078-0.979l0.02-0.009c-0.005-0.009-0.018-0.039-0.037-0.078   c-0.018-0.09-0.03-0.188-0.051-0.272c0.252,0.449,0.51,0.729,0.51,0.729c1.366,0.13,4.812-0.7,6.362-1.665   c1.772-1.102,4.157-3.851,4.894-5.47c1.131-2.489,1.673-4.34,0.123-4.34c-4.305,0.003-10.831,3.135-11.518,3.764   c-0.092-0.326-0.694-2.972,2.696-3.991c3.613-1.092,5.512,0.115,8.599-1.685c2.974-1.737,3.818-3.34,4.236-6.054   c0.021-0.142,0.039-0.288,0.056-0.438c1.808-1.091,4.563-3.005,5.428-4.138c1.206-1.594,4.003-3.112,4.248-3.342   c0.24-0.228,2.048-1.858,2.778-3.815c0.75-1.998,1.245-5.244,1.204-6.381C88.647,26.968,88.203,27.798,88.203,27.798z    M28.154,48.677c-0.337-0.322-0.65-0.939-0.928-1.618c1.2,0.557,3.147,1.622,3.147,1.622s3.746,2.184,3.579,2.195   C31.144,51.05,28.986,49.495,28.154,48.677z M32.925,62.195c-2.778-2.477-4.199-5.387-3.877-6.801   c0.082-0.362,3.543-0.137,5.897,2.363c1.746,1.863,4.751,6.391,4.751,6.391C38.467,64.237,35.068,64.105,32.925,62.195z    M65.045,57.757c2.352-2.5,5.812-2.724,5.895-2.363c0.323,1.414-1.099,4.324-3.876,6.801c-2.141,1.91-5.543,2.042-6.773,1.953   C60.292,64.148,63.3,59.62,65.045,57.757z M71.85,48.523c-0.836,0.815-2.991,2.37-5.8,2.193c-0.17-0.011,3.581-2.191,3.581-2.191   s1.947-1.066,3.146-1.62C72.5,47.579,72.184,48.196,71.85,48.523z"/></g></svg>