<svg xmlns="http://www.w3.org/2000/svg" xmlns:xlink="http://www.w3.org/1999/xlink" version="1.2" baseProfile="tiny" x="0px" y="0px" viewBox="0 0 128 160" xml:space="preserve"><path fill="#000000" d="M28.5,126.9C18.4,126.2,9.7,118.6,5,110c-4.7-8.6-5.3-19.3-1.4-28.2c2.3-5.3,6-10.1,6.9-15.8  c0.8-5.4-1.4-11.2-5.6-14.8c10.8,0.3,20.4,9.6,20.6,20c15.4-8.5,22.6-28.5,16.1-44.4C38.1,18.1,31.1,10.1,32.3,1  c3.7,5.1,9.5,8.3,15.5,10.5c6,2.2,12.3,3.6,18.2,6.1c20.2,8.5,33.6,30.3,31.5,51.5c0.3-4.2,3.2-7.9,6.4-10.9  c3.2-2.9,6.9-5.4,9.8-8.5c2.4-2.6,4.8-6.1,4.8-9.6c2.4,3.3,3.1,6.9,2.7,10.8c-0.4,4.2-2.5,8.2-1.9,12.3c0.5,3.5,2.9,6.5,4.6,9.6  c4.3,8.2,3.7,18.1,1.5,27c-1.7,7-4.5,14-9.9,18.8c-7.4,6.6-18.2,8-28.3,8.2c5.7-4.1,8.4-11.7,6.4-18.2c-1.1-3.7-3.3-8.4-0.2-11  c-4.5,3.4-7.2,8.8-7.4,14.3c1.2-4.1-3.4-7.7-4.2-11.9c-0.5-2.4,0.3-4.9,0.3-7.3c0-6.3-4.7-11.5-8.9-16.4c-4.2-4.8-8.4-10.7-7.1-16.9  c-2.7,5.1-5.5,10.2-7,15.7c-1.5,5.5-1.7,11.6,0.7,16.8c0.9,1.9,2.1,3.7,2.7,5.8c0.6,2,0.4,4.5-1.1,5.9c-2.1,2-5.9,1.3-7.9-0.8  c-2.1-2-2.8-5-3.4-7.8c-0.6-2.8-1-5.7-2.7-8.1c-2.3-3.3-7-5.7-6.8-9.7c-0.9,5.8-1.8,11.6-2.7,17.4c-0.5,3.1-1,6.4,0,9.4  c0.7,2.2,2.2,4.1,3.4,6.1c2.6,4.5,3.6,9.8,2.9,14.9C44,125.3,40.4,127.6,28.5,126.9z"/><text x="0" y="143" fill="#000000" font-size="5px" font-weight="bold" font-family="'Helvetica Neue', Helvetica, Arial-Unicode, Arial, Sans-serif">Created by Vectors Market</text><text x="0" y="148" fill="#000000" font-size="5px" font-weight="bold" font-family="'Helvetica Neue', Helvetica, Arial-Unicode, Arial, Sans-serif">from the Noun Project</text></svg>