<svg xmlns="http://www.w3.org/2000/svg" viewBox="0 0 64 80" x="0px" y="0px">
    
        <path fill="#e3f3f5" d="M61,31H57.8l1.044-1.67a1,1,0,0,0-1.7-1.06L55.446,31H52.68l2.168-3.47a1,1,0,0,0-1.7-1.06L50.321,31H47.869l2.3-3.445a1,1,0,1,0-1.664-1.11L45.465,31h-6.4V28.5a1,1,0,0,0-.5-.866l-.495-.287,4.161-4.161L47.6,24.259a1.029,1.029,0,0,0,.2.02,1,1,0,0,0,.2-1.981l-4.06-.812,1.734-1.734L50.638,20.9a1.021,1.021,0,0,0,.225.025,1,1,0,0,0,.224-1.974l-3.757-.868,1.956-1.956,3.137.725a1.021,1.021,0,0,0,.225.025,1,1,0,0,0,.224-1.975l-1.918-.442,2.259-2.26A1,1,0,1,0,51.8,10.787L49.54,13.046,49.1,11.127a1,1,0,0,0-1.95.451l.724,3.136L45.915,16.67,45,12.683a1,1,0,0,0-1.949.45l1.2,5.206-1.734,1.734L41.7,16.012a1,1,0,0,0-1.961.392l1.074,5.368-4.54,4.54L33,24.422V18.535L37.555,15.5a1,1,0,0,0-1.11-1.665L33,16.132V13.68l4.33-2.707a1,1,0,0,0-1.06-1.7L33,11.321V8.555l2.73-1.707a1,1,0,0,0-1.06-1.7L33,6.2V3a1,1,0,0,0-2,0V6.2L29.33,5.152a1,1,0,1,0-1.06,1.7L31,8.555v2.766L27.53,9.152a1,1,0,1,0-1.06,1.7L31,13.68v2.452l-3.445-2.3a1,1,0,0,0-1.11,1.665L31,18.535v5.887l-3.274,1.89-4.54-4.54L24.26,16.4a1,1,0,0,0-1.961-.392l-.812,4.061-1.735-1.735L20.9,13.362a1,1,0,0,0-1.949-.449l-.867,3.757-1.955-1.956.724-3.136a1,1,0,0,0-1.95-.451l-.443,1.919L12.2,10.787A1,1,0,1,0,10.787,12.2l2.259,2.26-1.918.442a1,1,0,0,0,.224,1.975,1.021,1.021,0,0,0,.225-.025l3.137-.725,1.956,1.956L12.684,19a1,1,0,0,0,.223,1.975,1.03,1.03,0,0,0,.226-.025l5.205-1.2,1.734,1.734-4.06.812a1,1,0,0,0,.2,1.981,1.029,1.029,0,0,0,.2-.02l5.368-1.073,4.161,4.161-.5.287a1,1,0,0,0-.5.866V31h-6.4L15.5,26.445a1,1,0,1,0-1.664,1.11L16.131,31H13.679l-2.706-4.33a1,1,0,0,0-1.7,1.06L11.32,31H8.554L6.848,28.27a1,1,0,1,0-1.7,1.06L6.2,31H3a1,1,0,0,0,0,2H6.2L5.152,34.67a1,1,0,0,0,1.7,1.06L8.554,33H11.32L9.152,36.47a1,1,0,0,0,1.7,1.06L13.679,33h2.452l-2.3,3.445a1,1,0,0,0,1.664,1.11L18.535,33h6.4v2.5a1,1,0,0,0,.5.866l.5.287-4.161,4.161L16.4,39.741a1,1,0,0,0-.392,1.961l4.06.812-1.734,1.734L13.362,43.1a1,1,0,1,0-.449,1.949l3.757.868-1.956,1.956-3.137-.725a1,1,0,0,0-.449,1.95l1.918.442L10.787,51.8A1,1,0,1,0,12.2,53.213l2.259-2.259.443,1.919a1,1,0,0,0,.974.774,1.036,1.036,0,0,0,.226-.025,1,1,0,0,0,.75-1.2l-.724-3.136,1.956-1.956.92,3.987a1,1,0,0,0,.974.775,1.023,1.023,0,0,0,.225-.026,1,1,0,0,0,.75-1.2l-1.2-5.206,1.734-1.734.812,4.061a1,1,0,0,0,.979.8.964.964,0,0,0,.2-.02A1,1,0,0,0,24.26,47.6l-1.074-5.368,4.54-4.54L31,39.578v5.887L26.445,48.5a1,1,0,0,0,1.11,1.665L31,47.868V50.32l-4.33,2.707a1,1,0,0,0,1.06,1.7L31,52.679v2.766l-2.73,1.707a1,1,0,0,0,1.06,1.7L31,57.8V61a1,1,0,0,0,2,0V57.8l1.67,1.044a1,1,0,0,0,1.06-1.7L33,55.445V52.679l3.47,2.169a1,1,0,1,0,1.06-1.7L33,50.32V47.868l3.445,2.3a1,1,0,0,0,1.11-1.665L33,45.465V39.578l3.274-1.89,4.54,4.54L39.74,47.6a1,1,0,0,0,.784,1.176.964.964,0,0,0,.2.02,1,1,0,0,0,.979-.8l.812-4.061,1.735,1.735L43.1,50.638a1,1,0,0,0,.75,1.2,1.021,1.021,0,0,0,.225.025,1,1,0,0,0,.974-.775l.867-3.757,1.955,1.956-.724,3.136a1,1,0,0,0,.75,1.2,1.036,1.036,0,0,0,.226.025,1,1,0,0,0,.974-.774l.443-1.919L51.8,53.213A1,1,0,0,0,53.213,51.8l-2.259-2.26,1.918-.442a1,1,0,0,0-.449-1.95l-3.137.725L47.33,45.916,51.316,45a1,1,0,0,0-.449-1.95l-5.2,1.2-1.734-1.734,4.06-.812a1,1,0,0,0-.392-1.961l-5.368,1.073-4.161-4.161.495-.287a1,1,0,0,0,.5-.866V33h6.4L48.5,37.555a1,1,0,1,0,1.664-1.11L47.869,33h2.452l2.706,4.33a1,1,0,1,0,1.7-1.06L52.68,33h2.766l1.706,2.73a1,1,0,1,0,1.7-1.06L57.8,33H61a1,1,0,0,0,0-2ZM35.562,33.487a1,1,0,0,1-.5.866l-2.567,1.482a1,1,0,0,1-1,0l-2.566-1.482a1,1,0,0,1-.5-.866V30.522a1,1,0,0,1,.5-.866L31.5,28.174a1,1,0,0,1,1,0l2.567,1.482a1,1,0,0,1,.5.866Z"
        />
        <polygon points="30.429 31.1 30.429 32.91 31.995 33.814 33.563 32.909 33.563 31.1 31.995 30.195 30.429 31.1" />
    </svg>