
<svg xmlns="http://www.w3.org/2000/svg" xmlns:xlink="http://www.w3.org/1999/xlink" version="1.1" x="0px" y="0px" viewBox="0 0 100 125" enable-background="new 0 0 100 100" xml:space="preserve"><g><path fill="white" d="M43.127,59.966c0,0.002,0,0.005-0.002,0.007c0.041-0.039,0.083-0.079,0.125-0.12c0.056-0.055,0.092-0.092,0.092-0.092l0,0   c0.976-0.98,1.744-1.995,3.702-2.129c1.296-0.089,1.677,2.278,3.695,2.044c1.5-0.175,1.476-2.155,2.835-2.155   c0.899-0.18,2.309,1.131,3.199,2.088c0.012,0.016,0.301,0.355,0.418,0.463c0.024,0.031,0.052,0.059,0.074,0.087   c1.007,1.279,1.594,0.232,1.594,0.232s1.288-11.634,0.496-16.479c13.538-9.004,11.807-14.079,11.173-16.074   c-1.71-3.509-6.244-6.378-10.285-10.139c-4.042-3.762-6.657-8.728-6.657-8.728c-1.013-1.92-1.73-1.841-3.217-2.643   c-0.38-0.199-0.512-0.011-0.635,0.026c-1.453,0.773-2.171,0.717-3.172,2.616c0,0-2.619,4.965-6.66,8.728   c-4.042,3.761-8.575,6.63-10.288,10.139c-0.634,1.995-2.366,7.07,11.174,16.074c-0.792,4.845,0.496,16.495,0.496,16.495   s0.517,1.165,1.391,0.094"/><g><ellipse fill="white" cx="58.125" cy="67.268" rx="1.259" ry="1.639"/><ellipse fill="white" cx="42.015" cy="67.267" rx="1.26" ry="1.639"/><path fill="white" d="M76.547,72.437c-1.384-8.563-1.908-11.605-2.507-12.216c-0.583-0.595-3.488-0.359-3.114,2.515    c0.149,1.14,0.434,4.91,0,6.109c-0.432,1.197,0.507,1.855,1.68,3.113c1.175,1.258,1.685,3.442,1.521,4.701    c-0.162,1.235-1.211,7.097-2.768,8.793c-0.98,1.067-5.709,5.67-7.093,5.849c-0.134,0.018-0.275,0.038-0.428,0.06    c-0.123,0.018-0.249,0.037-0.383,0.057l0.069-0.127c3.902-3.045,0.118-5.451,0.118-5.451c-1.282-0.996-3.423-2.169-4.568-3.042    c-3.328-2.455-3.025-4.671-3.025-4.671s4.873,1.198,5.852,1.896c3.545,2.115,1.902,6.808,4.122,5.689    c5.336-3.076-6.342-9.322-6.342-9.322s2.769,0,5.883,0.239c3.113,0.239,4.303,3.636,4.498,5.749    c0.113,1.257,1.268,1.118,1.325,0.04c0.837-5.758-4.526-7.745-7.208-8.363c-5.4-1.486-5.485-2.358-5.29-3.778    c-1.622-0.383-2.811-1.603-2.811-3.05c0-1.326,0.996-2.463,2.415-2.937c1.603-0.228-0.12-1.623-0.873-2.36    c-0.938-1.005-2.465-2.782-3.673-2.795c-1.483,0-1.513,2.432-3.149,2.616c-2.203,0.246-2.971-2.56-3.759-2.61    c-1.959-0.13-3.415,1.873-4.549,2.923c-0.838,1.071-1.736,1.812-0.844,2.227c1.416,0.474,2.416,1.61,2.416,2.937    c0,1.447-1.188,2.667-2.813,3.05c0.197,1.42,0.112,2.292-5.29,3.778c-2.681,0.618-8.044,2.605-7.208,8.363    c0.057,1.078,1.21,1.217,1.327-0.04c0.193-2.113,1.384-5.51,4.498-5.749c3.113-0.239,5.88-0.239,5.88-0.239    s-11.676,6.246-6.342,9.322c2.22,1.118,0.576-3.574,4.123-5.689c0.981-0.698,5.852-1.896,5.852-1.896s0.303,2.216-3.026,4.671    c-1.143,0.873-3.285,2.046-4.566,3.042c0,0-3.785,2.406,0.12,5.451l0.067,0.127c-0.132-0.02-0.261-0.039-0.383-0.057    c-0.151-0.021-0.295-0.042-0.427-0.06c-1.383-0.179-6.113-4.781-7.092-5.849c-1.558-1.696-2.606-7.558-2.769-8.793    c-0.164-1.259,0.347-3.443,1.522-4.701c1.176-1.258,2.111-1.916,1.679-3.113c-0.432-1.199-0.148-4.97,0-6.109    c0.375-2.874-2.531-3.109-3.114-2.515c-0.599,0.61-1.124,3.652-2.508,12.216C22.208,81,27.224,89.744,30.166,91.82    c4.676,3.301,10.034,2.476,13.436,0.479c4.037-2.214,4.77-6.914,5.508-10.978c0.278,0.217,0.583,0.344,0.907,0.344    c0.361,0,0.698-0.164,0.999-0.431c0.745,4.069,1.46,8.738,5.524,10.968c3.402,1.997,8.758,2.869,13.437-0.432    C72.916,89.697,77.932,81,76.547,72.437z M46.361,84.504c-1.924,2.935-5.355,6.079-5.932,6.479    c-0.512,0.353-1.219,0.528-2.02,0.558c-0.25-0.469-0.741-0.524-0.413-1.512c0.812-0.845,1.007-1.092,1.764-1.65l0.087-0.064    c0.682-0.494,1.508-1.004,2.513-1.503c1.788-0.889,3.457-2.387,4.827-3.883C47.101,83.454,46.768,83.687,46.361,84.504z     M61.729,91.54c-0.8-0.029-1.508-0.205-2.02-0.558c-0.574-0.399-4.007-3.544-5.931-6.479c-0.406-0.817-0.742-1.05-0.829-1.576    c1.373,1.496,3.04,2.994,4.828,3.883c1.006,0.499,1.832,1.009,2.513,1.503l0.088,0.064c0.757,0.559,0.954,0.806,1.765,1.65    C62.472,91.016,61.981,91.071,61.729,91.54z"/></g></g></svg>