<svg xmlns="http://www.w3.org/2000/svg" xmlns:xlink="http://www.w3.org/1999/xlink" version="1.1" x="0px" y="0px" viewBox="0 0 100 125"
    enable-background="new 0 0 100 100" xml:space="preserve" class="wolf">
    <g>
        <polygon fill="#cef1f7" points="7.6,22.1 7.6,15 9.5,15 16.2,20 18.4,20 23.7,25.6 30.5,28.5 30.5,31.2 38.4,37.8 85.5,50.2 95,74.3 85.5,66.7    95,77.7 95,88.4 92.9,95 85.4,95 86.7,91 88.5,91 88.5,80.7 66.9,67 38.4,70.3 38.4,88.4 36.2,95 23.6,95 24.9,91 30.5,91    30.5,73.8 11.8,46.8 7.6,27.3 5,23.9 5,22.1  "
        />
        <polygon fill="#cef1f7" points="66.9,72.2 84.3,82.8 84.3,88.4 82.2,95 75.4,95 76.7,91 78.7,91 78.7,82.8  " /></g></svg>